<svg height="1118" width="720" xmlns="http://www.w3.org/2000/svg">
<rect height="1118" fill="#555" width="720"></rect>
<text fill="#7f7" font-family="Courier New" font-size="12" xml:space="preserve">
<tspan x="10" y="26"></tspan>
<tspan x="10" y="42">&gt; npmtest-selenium-webdriver@0.0.1 test /home/travis/build/npmtest/node-npmtest-selenium-webdriv\</tspan>
<tspan x="10" y="58">er</tspan>
<tspan x="10" y="74">&gt; (set -e; export PORT=$(utility2 shServerPortRandom); utility2 test test.js)</tspan>
<tspan x="10" y="90"></tspan>
<tspan x="10" y="106"></tspan>
<tspan x="10" y="122">[MODE_BUILD=npmTest] - 2017-04-11T07:19:22Z - npm-testing /home/travis/build/npmtest/node-npmtes\</tspan>
<tspan x="10" y="138">t-selenium-webdriver</tspan>
<tspan x="10" y="154"></tspan>
<tspan x="10" y="170">merging file:///home/travis/build/npmtest/node-npmtest-selenium-webdriver/tmp/build/test-report.\</tspan>
<tspan x="10" y="186">json to test-report</tspan>
<tspan x="10" y="202">&gt; server listening on http-port 57051</tspan>
<tspan x="10" y="218">[node test-case 1 of 6 passed] - testCase_buildLib_default</tspan>
<tspan x="10" y="234">[node test-case 2 of 6 passed] - testCase_buildReadme_default</tspan>
<tspan x="10" y="250">[node test-case 3 of 6 passed] - testCase_buildTest_default</tspan>
<tspan x="10" y="266"></tspan>
<tspan x="10" y="282">browserTest - created electron entry-page /home/travis/build/npmtest/node-npmtest-selenium-webdr\</tspan>
<tspan x="10" y="298">iver/tmp/electron.15b5be19c900.ed6f10692d7dc.html</tspan>
<tspan x="10" y="314"></tspan>
<tspan x="10" y="330">[node test-case 4 of 6 passed] - testCase_buildApidoc_default</tspan>
<tspan x="10" y="346">Xlib:  extension "RANDR" missing on display ":99.0".</tspan>
<tspan x="10" y="362">merging file:///home/travis/build/npmtest/node-npmtest-selenium-webdriver/tmp/build/test-report.\</tspan>
<tspan x="10" y="378">json to test-report</tspan>
<tspan x="10" y="394">Xlib:  extension "RANDR" missing on display ":99.0".</tspan>
<tspan x="10" y="410">[5124:0411/071924:WARNING:audio_manager.cc(314)] Multiple instances of AudioManager detected</tspan>
<tspan x="10" y="426">[5124:0411/071924:WARNING:audio_manager.cc(275)] Multiple instances of AudioManager detected</tspan>
<tspan x="10" y="442">[5156:0411/071924:ERROR:sandbox_linux.cc(343)] InitializeSandbox() called with multiple threads \</tspan>
<tspan x="10" y="458">in process gpu-process. </tspan>
<tspan x="10" y="474"></tspan>
<tspan x="10" y="490">browserTest - opened url http://127.0.0.1:57051?modeTest=1</tspan>
<tspan x="10" y="506"></tspan>
<tspan x="10" y="522">&gt; server listening on http-port 53651</tspan>
<tspan x="10" y="538">[node test-case 5 of 6 passed] - testCase_buildApp_default</tspan>
<tspan x="10" y="554"></tspan>
<tspan x="10" y="570">browserTest - created screenCapture file:///home/travis/build/npmtest/node-npmtest-selenium-webd\</tspan>
<tspan x="10" y="586">river/tmp/build/screenCapture.npmTest.browser.%2F.png</tspan>
<tspan x="10" y="602"></tspan>
<tspan x="10" y="618">browserTest - created screenCapture file:///home/travis/build/npmtest/node-npmtest-selenium-webd\</tspan>
<tspan x="10" y="634">river/tmp/build/screenCapture.npmTest.browser.%2F.html</tspan>
<tspan x="10" y="650"></tspan>
<tspan x="10" y="666">browserTest - exit-code 0 - http://127.0.0.1:57051?modeTest=1</tspan>
<tspan x="10" y="682"></tspan>
<tspan x="10" y="698"></tspan>
<tspan x="10" y="714">browserTest - merging test-report from /home/travis/build/npmtest/node-npmtest-selenium-webdrive\</tspan>
<tspan x="10" y="730">r/tmp/test-report.npmTest.browser.%2F.json</tspan>
<tspan x="10" y="746"></tspan>
<tspan x="10" y="762">[node test-case 6 of 6 passed] - testCase_webpage_default</tspan>
<tspan x="10" y="778">merging file:///home/travis/build/npmtest/node-npmtest-selenium-webdriver/tmp/build/test-report.\</tspan>
<tspan x="10" y="794">json to test-report</tspan>
<tspan x="10" y="810"></tspan>
<tspan x="10" y="826">-------------------------------------------------------</tspan>
<tspan x="10" y="842">| test-report - buildCustomOrg - browser - / - Mozilla/5.0 (X11; Linux x86_64) AppleWebKit/537.3\</tspan>
<tspan x="10" y="858">6 (KHTML, like Gecko) Chrome/53.0.2785.143 Electron/1.4.15 Safari/537.36 - 2017-04-11T07:18:32.4\</tspan>
<tspan x="10" y="874">05Z</tspan>
<tspan x="10" y="890">|   68053 ms            0 failed        6 passed      |</tspan>
<tspan x="10" y="906">-------------------------------------------------------</tspan>
<tspan x="10" y="922">| test-report - buildCustomOrg - node - linux v6.10.2 - 2017-04-11T07:18:29.289Z</tspan>
<tspan x="10" y="938">|   16529 ms            0 failed        6 passed      |</tspan>
<tspan x="10" y="954">-------------------------------------------------------</tspan>
<tspan x="10" y="970"></tspan>
<tspan x="10" y="986">created test-report file:///home/travis/build/npmtest/node-npmtest-selenium-webdriver/tmp/build/\</tspan>
<tspan x="10" y="1002">test-report.html</tspan>
<tspan x="10" y="1018"></tspan>
<tspan x="10" y="1034"></tspan>
<tspan x="10" y="1050">npmTest - 0 failed tests</tspan>
<tspan x="10" y="1066"></tspan>
<tspan x="10" y="1082"></tspan>
<tspan x="10" y="1098">[MODE_BUILD=npmTest] - 2017-04-11T07:19:41Z - EXIT_CODE - 0</tspan>
</text>
</svg>
